<?xml version="1.0" encoding="utf-8"?>
<!-- Generator: Adobe Illustrator 23.0.2, SVG Export Plug-In . SVG Version: 6.00 Build 0)  -->
<svg version="1.1" id="Calque_1" xmlns="http://www.w3.org/2000/svg" xmlns:xlink="http://www.w3.org/1999/xlink" x="0px" y="0px"
	 viewBox="0 0 1920 1080" style="enable-background:new 0 0 1920 1080;" xml:space="preserve">
<style type="text/css">
	.st0{fill:#1157FC;}
	.st1{fill:#D8D8D8;}
</style>
<ellipse cx="347" cy="403" rx="251" ry="64"/>
<path class="st0" d="M307.6,387l-9.7-163.9c-2.1,27.6-6.1,53.3-11.8,77.2c-5.7,23.9-12.2,42.3-19.5,55.4s-14.7,22.2-22.3,27.5
	c-7.6,5.3-15.1,7.9-22.6,7.9c-4.5,0-8-1.1-10.4-3.4s-3.6-5-3.6-8.3c0-2.7,0.9-5.1,2.6-7.1c1.8-2,4-3,6.7-3c2,0,4.8,0.5,8.5,1.6
	c3.4,1.1,6.1,1.6,8.3,1.6c3.8,0,7.9-1.8,12-5.3c6.3-5.3,12.5-14.7,18.7-28.3s11.7-32.6,16.6-57c4.9-24.4,7.9-48.2,9.1-71.4
	c-18.6,0-33.7,5.7-45.3,17.2c-9.2,9.1-13.9,19.3-13.9,30.6c0,5,2.2,11,6.5,18c2.3,3.8,3.5,6.8,3.5,9.1c0,2.6-0.7,4.8-2,6.5
	c-1.3,1.7-2.9,2.6-4.8,2.6c-3.2,0-6-2.2-8.4-6.7c-3.3-6-5-13.1-5-21.3c0-11.6,3.1-22.6,9.4-33.2c6.3-10.6,14.9-18.7,26-24.2
	c11.1-5.5,24.1-8.3,39-8.4c8,0,14.4-0.9,19.3-2.7c-0.3,9.1-0.4,14-0.3,14.8c0,0.9,0.1,3,0.3,6.2l7.1,115.9
	c19.8-42.8,39.1-78,58-105.7c13.4-19.6,25.1-32.8,35.1-39.7c-5.7,19.3-11.8,44.7-18.3,76.2l-15.1,73c-0.8,4.1-1.9,10-3.3,17.8
	l-3,16.3c6.2,1.8,11.9,2.7,17.1,2.7c4.2,0,8.6-0.6,13.4-1.8l-1.6,8.8c-4.2,0.9-7.4,1.4-9.7,1.4c-3.4,0-8.2-0.5-14.5-1.4
	c-5.2-0.8-9.7-1.2-13.8-1.2c-4.3,0-9.1,1-14.5,3c4.5-14.6,9.2-34.2,14.2-58.9l9.5-46.6c4-20.1,7.5-33.9,10.5-41.4
	c-6.6,9.2-16.7,26.2-30.4,50.9c-11,19.9-23.3,45.1-36.9,75.5L307.6,387z"/>
<path class="st1" d="M422.8,329L411,396.7c2.8,0.6,5.1,0.9,6.8,0.9c2.6,0,5.8-0.6,9.6-1.9l-0.9,6.3c-3.9,1.2-7,1.8-9.2,1.8
	c-2.3,0-5.7-0.3-10.1-0.9c-3.9-0.6-7.2-0.9-9.8-0.9c-4.7,0-10.1,1-16.3,2.9l1.3-7.1c6.5-2.4,10.7-4.7,12.6-7
	c2.9-3.7,5.2-10.1,6.8-19.3l12.3-71.3c1.5-9.1,2.3-14.5,2.3-16.1c0-1.5-0.4-2.7-1.1-3.4c-0.7-0.8-2.2-1.1-4.4-1l1.1-6.1
	c5.9-0.1,13-1.7,21.3-4.7c-0.7,3.2-1.6,8-2.7,14.3l-6.6,37.6c2.8,0.9,5.2,1.3,7.2,1.3c7.4,0,13.7-3.7,18.9-11.2s7.9-16.3,7.9-26.5
	c0-7.9-2.1-14.4-6.3-19.5c-4.2-5.1-9.9-7.7-17.1-7.7c-9.2,0-18.2,3.2-27,9.7c-8.8,6.5-15.4,14.5-19.8,24.1c-4.4,9.6-6.6,19.6-6.6,30
	c0,7.9,2.3,14.7,6.8,20.4c2.3,2.8,3.7,4.8,4.2,6.1c0.5,1.3,0.8,2.6,0.8,4.1c0,1.8-0.5,3.3-1.4,4.7c-0.9,1.3-2,2-3.3,2
	c-3.2,0-6-2.7-8.5-8c-3.2-7-4.8-15.6-4.8-25.8c0-13.1,2.5-25.3,7.5-36.6c5-11.3,12.6-20.7,22.7-28.1c10.1-7.4,20.8-11.1,32.1-11.1
	c10.5,0,19.1,2.8,25.8,8.5c6.8,5.7,10.1,14.1,10.1,25.3c0,10.5-3.1,20.2-9.3,29.2c-6.2,9-14.7,14.8-25.6,17.4
	c2.7,7.8,4.4,13.1,5.2,15.8c1.2,4.6,3.1,12.3,5.6,23.2c5.9,25.5,12.1,43.5,18.4,53.9c4.7,7.6,9.8,11.4,15.3,11.4
	c5.6,0,9.3-3.7,10.8-11c0.9-4.7,1.8-7.5,2.6-8.6c1.1-1.5,2.4-2.3,3.8-2.3c1.4,0,2.6,0.7,3.6,2.2c1,1.4,1.5,3.2,1.5,5.2
	c0,5.3-2,10.3-6,15.1c-4,4.8-9.1,7.1-15.4,7.1c-5.7,0-11.2-2-16.4-6c-5.2-4-10.3-10.5-15.2-19.6c-4.9-9.1-9.2-20-12.8-32.7
	c-1.8-6.4-4.5-18.1-8-35.1c-2.1-10.4-3.4-16.6-4-18.6l-2.2-0.3C424.6,328.7,423.8,328.8,422.8,329z"/>
</svg>
